<svg xmlns="http://www.w3.org/2000/svg" viewBox="0 0 1000 1000" width="100%" height="100%">
  <defs>
    <linearGradient id="bgGrad" x1="0%" y1="0%" x2="100%" y2="100%">
      <stop offset="0%" stop-color="#0f172a" />
      <stop offset="100%" stop-color="#1e293b" />
    </linearGradient>

    <linearGradient id="iconGrad" x1="0%" y1="0%" x2="0%" y2="100%">
      <stop offset="0%" stop-color="#8457f1" />
      <stop offset="50%" stop-color="#3e6fff" />
      <stop offset="100%" stop-color="#0084ff" />
    </linearGradient>
  </defs>

  <rect width="1000" height="1000" fill="url(#bgGrad)" />

  <g fill="none" stroke="url(#iconGrad)" stroke-width="4.5" stroke-linecap="round" stroke-linejoin="round">
    <line x1="500" y1="350" x2="500" y2="497" />

    <path d="M 500,350 
             A 75,75 0 0,0 500,500 
             M 500,350 
             a 75,75 0 0,0 -23.1,3.6 l -3.4,-10.6 -14.4,4.7 3.4,10.6 
             a 75,75 0 0,0 -19.4,11.2 l -8.1,-7.6 -10.6,10.6 8.1,7.6 
             a 75,75 0 0,0 -13.2,18.1 l -11,-3.6 -4.7,14.4 11,3.6 
             a 75,75 0 0,0 -4.3,22.1 l -11.5,0.4 0,15.2 11.5,0.4 
             a 75,75 0 0,0 4.8,22.1 l -10.8,4.1 5.2,14.2 10.8,-4.1 
             a 75,75 0 0,0 13.6,17.8 l -7.6,8.6 11,10.2 7.6,-8.6 
             a 75,75 0 0,0 19.8,10.5 l -3.1,11.1 14.6,4.1 3.1,-11.1 
             a 75,75 0 0,0 23.2,2.8" />
             
    <path d="M 500,400 A 25,25 0 0,0 500,450" />

    <path d="M 500,350 
             A 75,75 0 0,1 565,462 
             L 540,497 
             L 500,497" />
             
    <path d="M 500,503 L 532,503" />
    <path d="M 500,509 L 526,509" />
    <path d="M 500,515 L 518,515" />

    <path d="M 500,465 
             L 515,465 
             L 515,440 
             A 12.5,12.5 0 1,0 499,428
             A 6,6 0 1,1 500,436" stroke-width="3.5" />
  </g>

  <g text-anchor="middle" id="brand-text">
    <text x="500" y="605" 
          fill="#ffffff" 
          font-family="-apple-system, BlinkMacSystemFont, 'Montserrat', 'Segoe UI', 'Roboto', sans-serif" 
          font-weight="700" 
          font-size="68" 
          letter-spacing="4">NITESH</text>

    <text x="500" y="650" 
          fill="#9492f1" 
          font-family="-apple-system, BlinkMacSystemFont, 'Montserrat', 'Segoe UI', 'Roboto', sans-serif" 
          font-weight="600" 
          font-size="22" 
          letter-spacing="9">KUMAR CHAUHAN</text>
  </g>
</svg>